# xmcd
#
# Track frame offsets:
#	150
#	24505
#	46010
#	67220
#	87267
#	100260
#	119707
#	138325
#	158310
#	177062
#
# Disc length: 2604 seconds
#
# Revision: 0
# Processed by: cddbd v1.4PL0 Copyright (c) Steve Scherf et al.
# Submitted via: dBpowerAMP V4.0
#
DISCID=7b0a2a0a
DTITLE=Bobby Rush - Lovin' A Big Fat Woman
DYEAR=1900
DGENRE=Blues
TTITLE0=Big Fat Woman
TTITLE1=Booga Bear
TTITLE2=Feel Like Gettin' It On
TTITLE3=Can't Save A Cent
TTITLE4=Me and My Harp
TTITLE5=Searching
TTITLE6=Cold Outdoors
TTITLE7=Buttermilk Bottom
TTITLE8=Bottle Up and Go
TTITLE9=Cold Hearted Woman
EXTD=
EXTT0=
EXTT1=
EXTT2=
EXTT3=
EXTT4=
EXTT5=
EXTT6=
EXTT7=
EXTT8=
EXTT9=
PLAYORDER=
